<?xml version="1.0" encoding="UTF-8" ?>
<!DOCTYPE svg PUBLIC "-//W3C//DTD SVG 1.1//EN" "http://www.w3.org/Graphics/SVG/1.1/DTD/svg11.dtd">
<svg width="201pt" height="201pt" viewBox="0 0 201 201" version="1.1" xmlns="http://www.w3.org/2000/svg">
<g id="#c385a2ff">
<path fill="#c385a2" opacity="1.00" d=" M 45.00 14.00 C 51.00 14.00 57.00 13.98 63.00 14.03 C 63.01 18.05 63.04 22.08 63.07 26.11 C 65.33 26.11 67.58 26.12 69.84 26.13 C 69.90 30.40 69.97 34.68 70.02 38.95 C 72.00 38.99 73.99 39.03 75.98 39.06 C 75.99 41.04 76.01 43.02 76.02 45.00 C 80.00 45.01 83.98 45.01 87.95 45.02 C 87.98 47.02 88.01 49.02 88.03 51.03 C 90.03 51.02 92.03 51.00 94.03 50.99 C 94.11 42.69 94.10 34.39 94.01 26.09 L 94.95 26.14 C 94.91 36.41 94.93 46.69 94.85 56.96 C 96.89 56.99 98.93 57.02 100.97 57.05 C 100.98 59.01 100.99 60.98 101.01 62.94 C 103.01 62.98 105.02 63.02 107.02 63.06 C 107.04 65.35 107.05 67.63 107.06 69.92 C 109.02 69.94 110.99 69.97 112.95 69.99 C 112.98 71.99 113.01 73.99 113.04 75.99 C 115.01 76.00 116.99 76.02 118.97 76.03 C 118.98 78.01 119.00 80.00 119.02 81.99 C 121.00 82.00 122.99 82.02 124.98 82.03 C 124.98 86.36 124.99 90.68 125.00 95.01 C 129.33 95.02 133.67 95.02 138.00 94.99 C 138.00 92.68 138.01 90.36 138.01 88.05 C 140.01 88.03 142.01 88.01 144.02 88.00 C 144.01 86.00 144.01 84.00 144.00 82.00 C 146.00 82.00 148.00 82.00 150.00 82.00 C 150.00 73.66 150.00 65.33 150.00 57.00 C 145.98 57.00 141.96 57.01 137.95 57.00 C 135.97 56.99 133.99 56.99 132.02 56.98 C 132.01 50.97 132.01 44.95 132.00 38.94 C 129.70 38.92 127.39 38.90 125.09 38.89 C 125.08 36.54 125.07 34.20 125.06 31.86 C 119.05 31.95 113.04 32.00 107.03 31.99 C 107.00 30.00 106.98 28.01 106.96 26.02 C 110.97 26.00 114.98 25.99 118.99 26.00 C 118.99 24.00 119.00 22.00 119.00 20.00 C 125.43 19.99 131.87 20.02 138.30 19.98 C 138.30 21.86 138.30 23.74 138.30 25.63 C 144.52 25.91 150.74 26.09 156.96 26.02 C 156.98 28.01 156.99 29.99 157.01 31.98 C 158.98 32.00 160.96 32.02 162.93 32.04 C 163.04 36.27 163.16 40.51 163.25 44.75 C 165.16 44.77 167.06 44.79 168.97 44.82 C 169.01 53.22 168.99 61.62 168.98 70.01 C 167.01 70.05 165.04 70.08 163.08 70.11 C 163.05 74.21 163.01 78.32 162.97 82.43 C 161.15 82.44 159.33 82.44 157.51 82.45 C 157.31 86.63 157.07 90.80 156.89 94.98 C 154.60 94.99 152.32 94.99 150.04 95.00 C 150.01 97.08 149.97 99.16 149.94 101.25 C 148.09 101.26 146.25 101.27 144.40 101.28 C 144.11 105.07 143.79 108.87 143.53 112.66 C 141.59 112.65 139.66 112.65 137.72 112.65 C 137.68 114.62 137.65 116.59 137.62 118.56 C 133.52 118.84 129.42 119.18 125.32 119.42 C 125.30 121.62 125.27 123.82 125.25 126.02 C 123.20 126.04 121.14 126.06 119.09 126.07 C 119.07 128.02 119.04 129.97 119.02 131.92 C 117.01 131.96 115.00 132.00 112.99 132.04 C 112.99 134.01 112.99 135.98 113.01 137.95 C 117.01 138.00 121.01 138.02 125.01 138.02 C 124.99 140.00 124.98 141.99 124.97 143.98 C 122.99 143.99 121.00 144.00 119.02 144.01 C 119.00 146.00 118.97 147.99 118.95 149.99 C 114.96 149.99 110.98 149.99 106.99 150.00 C 106.99 148.00 107.00 146.00 107.01 144.01 C 109.00 144.00 111.00 143.99 113.00 143.99 C 113.00 141.99 113.00 140.00 113.00 138.00 C 102.65 138.01 92.31 137.98 81.97 138.01 C 79.98 138.01 77.99 138.01 76.00 138.00 C 75.99 127.60 76.03 117.20 75.98 106.80 C 81.87 106.64 87.76 106.58 93.65 106.68 C 93.67 104.77 93.70 102.87 93.73 100.97 L 95.30 100.98 C 95.34 102.87 95.37 104.76 95.40 106.66 C 97.14 106.65 98.88 106.64 100.61 106.63 C 100.62 104.75 100.64 102.87 100.65 100.99 C 104.77 101.00 108.88 101.00 113.00 101.00 C 113.00 94.67 113.00 88.34 113.00 82.01 C 111.00 82.01 109.00 82.00 107.01 81.99 C 107.00 80.00 107.00 78.00 106.99 76.01 C 105.00 76.00 103.00 76.00 101.01 75.99 C 101.00 74.00 101.00 72.00 100.99 70.01 C 98.69 70.00 96.38 69.99 94.08 69.98 C 94.08 67.66 94.08 65.34 94.08 63.01 C 92.05 63.01 90.02 63.00 87.99 63.00 C 87.99 61.00 88.00 59.00 88.00 57.00 C 82.00 56.98 76.00 56.98 70.00 57.01 C 69.99 61.32 69.99 65.64 69.99 69.97 C 67.67 69.98 65.34 70.00 63.02 70.01 C 63.03 75.90 62.86 81.77 62.62 87.65 C 60.74 87.66 58.87 87.68 57.00 87.70 C 56.98 106.47 56.97 125.23 57.01 143.99 C 59.00 144.00 60.98 144.02 62.97 144.03 C 62.90 150.22 63.13 156.40 63.50 162.58 C 65.64 162.57 67.79 162.57 69.94 162.56 C 69.97 164.70 70.00 166.84 70.04 168.99 C 72.01 169.00 73.98 169.01 75.95 169.03 C 75.98 171.11 76.01 173.19 76.03 175.27 C 77.90 175.29 79.77 175.31 81.64 175.34 C 81.72 177.51 81.80 179.69 81.88 181.86 C 77.92 181.84 73.96 181.95 70.00 182.04 C 70.00 179.69 70.00 177.35 69.99 175.01 C 67.66 175.00 65.33 175.00 63.00 175.00 C 63.00 173.00 63.00 171.00 63.00 169.01 C 61.00 169.00 59.00 169.00 57.00 169.00 C 57.00 167.00 57.00 165.00 57.00 163.01 C 55.00 163.00 53.00 163.00 51.00 163.00 C 51.00 158.66 51.00 154.33 51.00 150.00 C 49.00 150.00 47.00 150.00 45.00 150.00 C 45.00 142.00 45.00 134.00 45.00 126.00 C 42.66 126.00 40.33 126.00 38.00 126.00 C 38.00 121.66 38.00 117.33 38.00 112.99 C 34.38 112.91 30.74 112.97 27.14 113.40 C 26.61 112.90 26.10 112.38 25.61 111.84 C 26.02 108.24 26.09 104.62 26.01 101.00 C 24.01 101.00 22.00 101.00 20.00 101.00 C 20.00 99.00 20.00 97.00 19.99 95.00 C 18.00 95.00 16.00 95.00 14.00 95.00 C 14.00 88.67 14.00 82.34 14.00 76.01 C 11.67 76.00 9.33 76.00 7.00 76.00 C 7.00 69.67 7.00 63.33 7.00 57.00 C 9.33 57.00 11.66 57.00 14.00 56.99 C 14.00 51.00 14.00 45.00 14.00 39.00 C 16.00 39.00 17.99 39.00 19.99 39.00 C 20.00 36.66 20.00 34.33 20.00 32.00 C 22.00 32.00 23.99 32.00 25.99 32.00 C 25.99 30.00 26.00 28.00 26.01 26.00 C 28.00 26.00 30.00 26.00 31.99 26.00 C 31.99 24.00 32.00 22.00 32.01 20.00 C 36.34 20.00 40.67 20.00 44.99 20.00 C 45.00 18.00 45.00 16.00 45.00 14.00 M 51.35 45.27 C 51.31 47.17 51.27 49.07 51.22 50.97 C 46.81 50.87 42.41 50.93 38.01 51.02 C 38.00 53.00 37.99 54.98 37.98 56.95 C 35.99 56.98 33.99 57.00 32.00 57.02 C 32.00 59.00 31.99 60.98 31.99 62.95 C 29.99 62.97 28.00 62.99 26.00 63.01 C 25.98 71.34 25.98 79.66 26.00 87.99 C 27.99 88.00 29.99 88.02 31.98 88.03 C 31.99 90.32 31.99 92.62 32.00 94.91 C 36.33 95.18 40.67 95.36 45.01 95.45 C 45.01 90.98 45.02 86.51 45.00 82.04 C 47.00 82.02 49.00 82.01 51.00 81.99 C 51.00 80.03 51.00 78.07 50.99 76.11 C 51.00 74.07 51.00 72.04 51.00 70.01 C 53.00 70.00 55.00 70.00 57.00 69.99 C 57.00 65.66 57.00 61.33 57.00 57.00 C 59.00 57.00 61.00 57.00 63.00 56.99 C 63.00 55.00 63.00 53.00 63.00 51.00 C 60.89 51.01 58.79 51.02 56.69 51.01 C 56.69 49.11 56.70 47.21 56.71 45.32 C 54.93 45.30 53.14 45.29 51.35 45.27 Z" />
<path fill="#c385a2" opacity="1.00" d=" M 125.01 132.00 C 127.34 132.01 129.67 132.02 131.99 132.02 C 131.99 134.01 131.99 135.99 131.99 137.98 C 129.66 137.99 127.34 138.00 125.01 138.02 C 125.01 136.01 125.01 134.01 125.01 132.00 Z" />
<path fill="#c385a2" opacity="1.00" d=" M 94.02 150.08 L 94.97 150.08 C 94.93 152.35 94.89 154.62 94.87 156.89 C 94.85 158.96 94.86 161.03 94.89 163.11 C 95.01 171.37 94.84 179.64 94.97 187.91 L 94.04 187.90 C 94.06 179.64 94.08 171.38 94.12 163.11 C 94.12 161.05 94.11 159.00 94.09 156.94 C 94.07 154.65 94.05 152.37 94.02 150.08 Z" />
<path fill="#c385a2" opacity="1.00" d=" M 81.88 181.86 C 83.91 181.93 85.93 182.00 87.96 182.07 C 87.99 184.04 88.03 186.01 88.06 187.99 C 86.06 187.99 84.05 188.00 82.05 188.01 C 82.00 185.96 81.95 183.91 81.88 181.86 Z" />
</g>
<g id="#ffffffff">
<path fill="#ffffff" opacity="1.00" d=" M 38.01 8.00 C 54.67 8.00 71.33 7.99 87.99 8.00 C 88.00 10.00 88.00 11.99 88.00 13.99 C 92.33 13.98 96.66 13.99 100.99 14.00 C 101.00 16.00 101.00 18.00 101.01 20.00 C 103.00 20.00 105.00 20.00 106.99 20.00 C 106.99 18.00 107.00 16.00 107.01 14.00 C 125.67 14.00 144.33 14.00 162.99 14.00 C 162.99 16.00 163.00 18.00 163.01 20.00 C 165.00 20.00 167.00 20.00 168.99 20.00 C 169.00 22.00 169.00 24.00 169.01 25.99 C 171.00 26.00 173.00 26.00 175.00 26.01 C 175.00 28.00 175.00 30.00 175.01 31.99 C 177.00 31.99 179.00 32.00 181.00 32.00 C 181.00 34.33 181.00 36.66 181.00 38.99 C 183.33 38.99 185.66 39.00 187.99 39.00 C 188.00 41.00 188.00 43.00 188.01 45.00 C 190.00 45.00 192.00 45.00 194.00 45.00 C 194.00 49.00 194.00 52.99 194.00 56.99 C 196.00 56.99 197.99 57.00 199.99 57.00 C 200.00 63.33 200.00 69.67 199.99 76.00 C 197.99 76.00 196.00 76.00 194.00 76.01 C 194.00 82.34 194.00 88.67 194.00 95.00 C 192.00 95.00 190.00 95.00 188.01 95.00 C 188.00 97.00 188.00 99.00 187.99 101.00 C 185.66 101.00 183.33 101.00 181.01 101.01 C 181.00 103.00 181.00 105.00 181.00 106.99 C 179.00 107.00 177.00 107.00 175.01 107.01 C 175.00 109.00 174.99 111.00 174.99 113.00 C 173.00 113.00 171.00 113.00 169.01 113.00 C 169.00 115.00 169.00 117.00 168.99 119.00 C 166.99 119.00 165.00 119.00 163.00 119.01 C 163.00 125.34 163.00 131.67 163.00 138.00 C 161.00 138.00 159.00 138.00 157.00 138.01 C 157.00 144.34 157.01 150.67 157.00 157.00 C 154.67 157.00 152.34 157.00 150.01 157.01 C 150.00 159.00 150.00 160.99 150.00 162.99 C 148.00 162.99 146.00 163.00 144.00 163.01 C 144.00 167.01 144.00 171.00 144.00 175.00 C 142.00 175.00 140.00 175.00 138.01 175.00 C 138.00 177.33 138.00 179.66 138.00 181.99 C 136.00 181.99 134.00 182.00 132.01 182.01 C 132.00 184.01 132.00 186.00 131.99 188.00 C 127.66 188.00 123.33 188.00 119.00 188.01 C 119.00 190.00 119.00 192.00 119.00 194.00 C 104.67 194.01 90.33 194.01 76.00 194.00 C 76.00 192.00 76.00 190.00 76.00 188.00 C 71.67 188.00 67.34 188.00 63.01 188.00 C 63.00 186.00 62.99 184.00 62.99 182.00 C 60.99 182.00 59.00 182.00 57.00 182.00 C 57.00 179.67 57.00 177.33 56.99 175.01 C 55.00 175.00 53.00 174.99 51.00 174.99 C 51.00 173.00 51.00 171.00 51.00 169.01 C 49.00 169.00 47.00 168.99 45.00 168.99 C 45.00 164.99 45.00 161.00 45.00 157.01 C 42.66 157.00 40.33 157.00 38.00 157.00 C 38.00 152.67 37.99 148.34 38.00 144.01 C 36.00 144.01 34.00 144.00 32.00 143.99 C 32.00 135.66 32.00 127.33 32.00 119.00 C 29.97 119.00 27.94 119.00 25.91 119.00 C 26.02 117.52 26.13 116.03 26.25 114.55 C 25.64 113.95 25.04 113.35 24.44 112.75 C 22.96 112.87 21.49 112.98 20.01 113.09 C 20.00 111.06 20.00 109.03 19.99 107.00 C 18.00 107.00 16.00 107.00 14.00 107.00 C 14.00 105.00 14.00 103.00 13.99 101.00 C 11.66 101.00 9.33 101.00 7.00 100.99 C 7.00 96.67 7.00 92.34 7.00 88.01 C 5.00 88.00 3.00 88.00 1.00 88.00 C 1.00 73.66 0.99 59.33 1.01 45.00 C 3.00 45.00 5.00 45.00 6.99 45.00 C 7.00 40.67 7.00 36.34 7.00 32.00 C 9.33 32.00 11.66 32.00 13.99 31.99 C 14.00 29.99 14.00 28.00 14.01 26.00 C 16.00 26.00 18.00 26.00 20.00 25.99 C 20.00 24.00 20.00 22.00 20.00 20.01 C 22.00 20.00 24.00 20.00 26.00 19.99 C 26.00 17.99 26.00 16.00 26.00 14.00 C 30.00 14.00 34.00 14.00 38.00 14.00 C 38.00 12.00 38.00 10.00 38.01 8.00 M 45.00 14.00 C 45.00 16.00 45.00 18.00 44.99 20.00 C 40.67 20.00 36.34 20.00 32.01 20.00 C 32.00 22.00 31.99 24.00 31.99 26.00 C 30.00 26.00 28.00 26.00 26.01 26.00 C 26.00 28.00 25.99 30.00 25.99 32.00 C 23.99 32.00 22.00 32.00 20.00 32.00 C 20.00 34.33 20.00 36.66 19.99 39.00 C 17.99 39.00 16.00 39.00 14.00 39.00 C 14.00 45.00 14.00 51.00 14.00 56.99 C 11.66 57.00 9.33 57.00 7.00 57.00 C 7.00 63.33 7.00 69.67 7.00 76.00 C 9.33 76.00 11.67 76.00 14.00 76.01 C 14.00 82.34 14.00 88.67 14.00 95.00 C 16.00 95.00 18.00 95.00 19.99 95.00 C 20.00 97.00 20.00 99.00 20.00 101.00 C 22.00 101.00 24.01 101.00 26.01 101.00 C 26.09 104.62 26.02 108.24 25.61 111.84 C 26.10 112.38 26.61 112.90 27.14 113.40 C 30.74 112.97 34.38 112.91 38.00 112.99 C 38.00 117.33 38.00 121.66 38.00 126.00 C 40.33 126.00 42.66 126.00 45.00 126.00 C 45.00 134.00 45.00 142.00 45.00 150.00 C 47.00 150.00 49.00 150.00 51.00 150.00 C 51.00 154.33 51.00 158.66 51.00 163.00 C 53.00 163.00 55.00 163.00 57.00 163.01 C 57.00 165.00 57.00 167.00 57.00 169.00 C 59.00 169.00 61.00 169.00 63.00 169.01 C 63.00 171.00 63.00 173.00 63.00 175.00 C 65.33 175.00 67.66 175.00 69.99 175.01 C 70.00 177.35 70.00 179.69 70.00 182.04 C 73.96 181.95 77.92 181.84 81.88 181.86 C 81.95 183.91 82.00 185.96 82.05 188.01 C 84.05 188.00 86.06 187.99 88.06 187.99 C 90.06 187.96 92.05 187.93 94.04 187.90 L 94.97 187.91 C 98.96 187.99 102.94 188.00 106.93 187.97 C 106.97 185.99 107.02 184.01 107.06 182.03 C 113.01 181.96 118.97 182.00 124.93 181.98 C 124.96 179.66 124.99 177.34 125.03 175.02 C 127.35 174.98 129.67 174.95 131.99 174.92 C 132.00 172.96 132.01 171.00 132.03 169.04 C 134.00 169.00 135.98 168.96 137.96 168.92 C 137.97 167.02 137.99 165.13 138.01 163.24 C 139.89 163.04 141.78 162.90 143.67 162.65 C 144.22 158.46 144.01 154.21 143.98 150.00 C 145.98 149.99 147.98 149.97 149.99 149.97 C 149.97 139.64 149.93 129.32 150.04 119.00 C 154.23 119.00 158.44 119.20 162.61 118.70 C 162.88 116.89 163.00 115.06 163.19 113.24 C 165.00 113.04 166.82 112.92 168.62 112.63 C 168.91 110.83 169.02 109.00 169.22 107.19 C 171.02 107.00 172.84 106.88 174.65 106.64 C 174.84 104.84 175.01 103.04 175.21 101.24 C 177.02 101.03 178.84 100.87 180.65 100.64 C 181.23 96.47 181.00 92.25 180.97 88.05 C 183.29 88.01 185.62 87.97 187.95 87.93 C 187.98 75.63 188.02 63.33 187.95 51.03 C 185.62 51.02 183.30 51.01 180.98 51.00 C 181.02 47.12 181.19 43.23 180.66 39.38 C 178.83 39.06 176.97 38.95 175.13 38.78 C 175.00 36.63 174.95 34.48 174.68 32.35 C 172.78 32.18 170.90 31.92 169.00 31.82 C 169.01 30.01 169.03 28.20 169.05 26.39 C 165.14 26.15 161.23 26.00 157.34 25.70 C 157.05 23.82 156.94 21.92 156.77 20.02 C 150.61 20.05 144.45 19.96 138.30 19.98 C 131.87 20.02 125.43 19.99 119.00 20.00 C 119.00 22.00 118.99 24.00 118.99 26.00 C 114.98 25.99 110.97 26.00 106.96 26.02 C 102.95 26.00 98.95 26.04 94.95 26.14 L 94.01 26.09 C 93.99 24.07 93.96 22.06 93.94 20.04 C 89.96 20.04 85.99 20.01 82.01 19.97 C 81.99 17.99 81.98 16.00 81.96 14.02 C 75.64 13.97 69.32 14.05 63.00 14.03 C 57.00 13.98 51.00 14.00 45.00 14.00 Z" />
<path fill="#ffffff" opacity="1.00" d=" M 51.22 50.97 C 53.04 50.99 54.86 51.01 56.69 51.01 C 58.79 51.02 60.89 51.01 63.00 51.00 C 63.00 53.00 63.00 55.00 63.00 56.99 C 61.00 57.00 59.00 57.00 57.00 57.00 C 57.00 61.33 57.00 65.66 57.00 69.99 C 55.00 70.00 53.00 70.00 51.00 70.01 C 51.00 72.04 51.00 74.07 50.99 76.11 C 49.04 76.07 47.09 76.04 45.14 76.02 C 45.01 77.96 44.89 79.91 44.76 81.86 C 42.50 81.92 40.23 81.99 37.97 82.05 C 37.97 78.05 37.99 74.05 38.04 70.05 C 40.34 70.01 42.64 69.97 44.95 69.93 C 44.97 65.64 44.99 61.36 45.03 57.07 C 46.97 57.01 48.91 56.96 50.85 56.91 C 50.97 54.93 51.09 52.95 51.22 50.97 Z" />
<path fill="#ffffff" opacity="1.00" d=" M 137.95 57.00 C 141.96 57.01 145.98 57.00 150.00 57.00 C 150.00 65.33 150.00 73.66 150.00 82.00 C 148.00 82.00 146.00 82.00 144.00 82.00 C 143.99 78.02 143.97 74.03 143.95 70.04 C 141.96 70.02 139.97 69.99 137.99 69.97 C 137.97 65.65 137.96 61.32 137.95 57.00 Z" />
<path fill="#ffffff" opacity="1.00" d=" M 87.99 63.00 C 90.02 63.00 92.05 63.01 94.08 63.01 C 94.08 65.34 94.08 67.66 94.08 69.98 C 96.38 69.99 98.69 70.00 100.99 70.01 C 101.00 72.00 101.00 74.00 101.01 75.99 C 103.00 76.00 105.00 76.00 106.99 76.01 C 107.00 78.00 107.00 80.00 107.01 81.99 C 109.00 82.00 111.00 82.01 113.00 82.01 C 113.00 88.34 113.00 94.67 113.00 101.00 C 108.88 101.00 104.77 101.00 100.65 100.99 C 98.87 100.99 97.09 100.98 95.30 100.98 L 93.73 100.97 C 89.82 100.95 85.91 100.94 82.00 100.92 C 81.98 96.63 81.98 92.34 82.00 88.06 C 83.99 88.01 85.98 87.97 87.98 87.93 C 87.98 83.95 88.00 79.98 88.02 76.01 C 90.03 75.99 92.05 75.97 94.06 75.95 C 93.98 74.04 93.88 72.14 93.79 70.24 C 91.85 70.12 89.92 70.00 87.98 69.89 C 87.98 67.59 87.98 65.29 87.99 63.00 M 94.08 82.01 C 94.09 86.33 94.08 90.65 94.06 94.97 C 96.37 94.98 98.69 95.00 101.00 95.01 C 101.00 90.67 101.00 86.33 100.99 82.00 C 98.69 82.00 96.38 82.01 94.08 82.01 Z" />
<path fill="#ffffff" opacity="1.00" d=" M 125.04 63.03 C 127.35 63.01 129.66 62.99 131.97 62.97 C 131.98 65.31 131.99 67.65 131.99 69.99 C 129.65 69.98 127.32 69.97 124.98 69.97 C 125.00 67.65 125.02 65.34 125.04 63.03 Z" />
<path fill="#ffffff" opacity="1.00" d=" M 131.99 69.99 C 133.99 69.98 135.99 69.98 137.99 69.97 C 138.03 73.98 138.03 77.99 138.02 82.00 C 136.01 82.02 134.01 82.03 132.00 82.05 C 131.97 78.03 131.96 74.01 131.99 69.99 Z" />
<path fill="#ffffff" opacity="1.00" d=" M 169.02 82.03 C 171.00 82.00 172.98 81.98 174.97 81.96 C 175.03 86.31 175.04 90.65 174.99 94.99 C 173.00 94.99 171.01 94.98 169.02 94.98 C 168.97 90.66 168.97 86.34 169.02 82.03 Z" />
<path fill="#ffffff" opacity="1.00" d=" M 163.00 94.97 C 165.01 94.97 167.01 94.98 169.02 94.98 C 169.01 96.99 169.00 99.00 169.00 101.00 C 167.01 101.01 165.02 101.02 163.03 101.03 C 163.02 99.01 163.01 96.99 163.00 94.97 Z" />
<path fill="#ffffff" opacity="1.00" d=" M 70.01 101.01 C 71.97 100.99 73.94 100.97 75.91 100.96 C 75.93 102.90 75.96 104.85 75.98 106.80 C 76.03 117.20 75.99 127.60 76.00 138.00 C 73.99 137.99 71.98 137.98 69.97 137.97 C 70.00 125.65 69.93 113.33 70.01 101.01 Z" />
<path fill="#ffffff" opacity="1.00" d=" M 81.97 138.01 C 92.31 137.98 102.65 138.01 113.00 138.00 C 113.00 140.00 113.00 141.99 113.00 143.99 C 111.00 143.99 109.00 144.00 107.01 144.01 C 107.00 146.00 106.99 148.00 106.99 150.00 C 102.98 150.01 98.97 150.08 94.97 150.08 L 94.02 150.08 C 92.03 150.06 90.03 150.03 88.03 150.00 C 88.00 148.02 87.97 146.05 87.94 144.07 C 85.97 144.03 84.01 143.99 82.04 143.95 C 82.01 141.97 81.99 139.99 81.97 138.01 Z" />
<path fill="#ffffff" opacity="1.00" d=" M 76.01 144.04 C 78.02 144.00 80.03 143.97 82.04 143.95 C 82.02 145.98 82.00 148.01 81.98 150.05 C 79.97 150.03 77.96 150.01 75.95 149.99 C 75.97 148.00 75.99 146.02 76.01 144.04 Z" />
<path fill="#ffffff" opacity="1.00" d=" M 81.98 150.05 C 84.00 150.03 86.02 150.01 88.03 150.00 C 88.02 152.34 88.00 154.68 87.98 157.02 C 85.99 157.00 84.00 156.99 82.02 156.98 C 82.00 154.67 81.99 152.36 81.98 150.05 Z" />
<path fill="#ffffff" opacity="1.00" d=" M 87.98 157.02 C 90.02 156.99 92.06 156.97 94.09 156.94 C 94.11 159.00 94.12 161.05 94.12 163.11 C 92.07 163.04 90.02 162.98 87.98 162.91 C 87.98 160.94 87.98 158.98 87.98 157.02 Z" />
<path fill="#ffffff" opacity="1.00" d=" M 94.87 156.89 C 96.90 156.94 98.94 156.99 100.98 157.04 C 100.97 159.03 100.97 161.02 100.97 163.02 C 98.94 163.05 96.91 163.08 94.89 163.11 C 94.86 161.03 94.85 158.96 94.87 156.89 Z" />
<path fill="#ffffff" opacity="1.00" d=" M 125.01 156.99 C 127.34 156.99 129.67 156.98 132.01 156.98 C 132.01 158.99 132.02 161.01 132.02 163.02 C 129.67 163.00 127.32 162.98 124.97 162.97 C 124.98 160.98 124.99 158.98 125.01 156.99 Z" />
<path fill="#ffffff" opacity="1.00" d=" M 100.97 163.02 C 106.97 162.96 112.97 162.96 118.98 162.99 C 118.99 164.99 119.00 167.00 119.01 169.00 C 112.99 169.07 106.98 169.05 100.96 168.96 C 100.96 166.98 100.96 165.00 100.97 163.02 Z" />
</g>
<g id="#ffc4ddff">
<path fill="#ffc4dd" opacity="1.00" d=" M 63.00 14.03 C 69.32 14.05 75.64 13.97 81.96 14.02 C 81.98 16.00 81.99 17.99 82.01 19.97 C 85.99 20.01 89.96 20.04 93.94 20.04 C 93.96 22.06 93.99 24.07 94.01 26.09 C 94.10 34.39 94.11 42.69 94.03 50.99 C 92.03 51.00 90.03 51.02 88.03 51.03 C 88.01 49.02 87.98 47.02 87.95 45.02 C 83.98 45.01 80.00 45.01 76.02 45.00 C 76.01 43.02 75.99 41.04 75.98 39.06 C 73.99 39.03 72.00 38.99 70.02 38.95 C 69.97 34.68 69.90 30.40 69.84 26.13 C 67.58 26.12 65.33 26.11 63.07 26.11 C 63.04 22.08 63.01 18.05 63.00 14.03 Z" />
<path fill="#ffc4dd" opacity="1.00" d=" M 138.30 19.98 C 144.45 19.96 150.61 20.05 156.77 20.02 C 156.94 21.92 157.05 23.82 157.34 25.70 C 161.23 26.00 165.14 26.15 169.05 26.39 C 169.03 28.20 169.01 30.01 169.00 31.82 C 170.90 31.92 172.78 32.18 174.68 32.35 C 174.95 34.48 175.00 36.63 175.13 38.78 C 176.97 38.95 178.83 39.06 180.66 39.38 C 181.19 43.23 181.02 47.12 180.98 51.00 C 183.30 51.01 185.62 51.02 187.95 51.03 C 188.02 63.33 187.98 75.63 187.95 87.93 C 185.62 87.97 183.29 88.01 180.97 88.05 C 181.00 92.25 181.23 96.47 180.65 100.64 C 178.84 100.87 177.02 101.03 175.21 101.24 C 175.01 103.04 174.84 104.84 174.65 106.64 C 172.84 106.88 171.02 107.00 169.22 107.19 C 169.02 109.00 168.91 110.83 168.62 112.63 C 166.82 112.92 165.00 113.04 163.19 113.24 C 163.00 115.06 162.88 116.89 162.61 118.70 C 158.44 119.20 154.23 119.00 150.04 119.00 C 149.93 129.32 149.97 139.64 149.99 149.97 C 147.98 149.97 145.98 149.99 143.98 150.00 C 144.01 154.21 144.22 158.46 143.67 162.65 C 141.78 162.90 139.89 163.04 138.01 163.24 C 137.99 165.13 137.97 167.02 137.96 168.92 C 135.98 168.96 134.00 169.00 132.03 169.04 C 132.01 171.00 132.00 172.96 131.99 174.92 C 129.67 174.95 127.35 174.98 125.03 175.02 C 124.99 177.34 124.96 179.66 124.93 181.98 C 118.97 182.00 113.01 181.96 107.06 182.03 C 107.02 184.01 106.97 185.99 106.93 187.97 C 102.94 188.00 98.96 187.99 94.97 187.91 C 94.84 179.64 95.01 171.37 94.89 163.11 C 96.91 163.08 98.94 163.05 100.97 163.02 C 100.96 165.00 100.96 166.98 100.96 168.96 C 106.98 169.05 112.99 169.07 119.01 169.00 C 119.00 167.00 118.99 164.99 118.98 162.99 C 112.97 162.96 106.97 162.96 100.97 163.02 C 100.97 161.02 100.97 159.03 100.98 157.04 C 98.94 156.99 96.90 156.94 94.87 156.89 C 94.89 154.62 94.93 152.35 94.97 150.08 C 98.97 150.08 102.98 150.01 106.99 150.00 C 110.98 149.99 114.96 149.99 118.95 149.99 C 118.97 147.99 119.00 146.00 119.02 144.01 C 121.00 144.00 122.99 143.99 124.97 143.98 C 124.98 141.99 124.99 140.00 125.01 138.02 C 127.34 138.00 129.66 137.99 131.99 137.98 C 131.99 135.99 131.99 134.01 131.99 132.02 C 129.67 132.02 127.34 132.01 125.01 132.00 C 125.01 134.01 125.01 136.01 125.01 138.02 C 121.01 138.02 117.01 138.00 113.01 137.95 C 112.99 135.98 112.99 134.01 112.99 132.04 C 115.00 132.00 117.01 131.96 119.02 131.92 C 119.04 129.97 119.07 128.02 119.09 126.07 C 121.14 126.06 123.20 126.04 125.25 126.02 C 125.27 123.82 125.30 121.62 125.32 119.42 C 129.42 119.18 133.52 118.84 137.62 118.56 C 137.65 116.59 137.68 114.62 137.72 112.65 C 139.66 112.65 141.59 112.65 143.53 112.66 C 143.79 108.87 144.11 105.07 144.40 101.28 C 146.25 101.27 148.09 101.26 149.94 101.25 C 149.97 99.16 150.01 97.08 150.04 95.00 C 152.32 94.99 154.60 94.99 156.89 94.98 C 157.07 90.80 157.31 86.63 157.51 82.45 C 159.33 82.44 161.15 82.44 162.97 82.43 C 163.01 78.32 163.05 74.21 163.08 70.11 C 165.04 70.08 167.01 70.05 168.98 70.01 C 168.99 61.62 169.01 53.22 168.97 44.82 C 167.06 44.79 165.16 44.77 163.25 44.75 C 163.16 40.51 163.04 36.27 162.93 32.04 C 160.96 32.02 158.98 32.00 157.01 31.98 C 156.99 29.99 156.98 28.01 156.96 26.02 C 150.74 26.09 144.52 25.91 138.30 25.63 C 138.30 23.74 138.30 21.86 138.30 19.98 M 169.02 82.03 C 168.97 86.34 168.97 90.66 169.02 94.98 C 171.01 94.98 173.00 94.99 174.99 94.99 C 175.04 90.65 175.03 86.31 174.97 81.96 C 172.98 81.98 171.00 82.00 169.02 82.03 M 163.00 94.97 C 163.01 96.99 163.02 99.01 163.03 101.03 C 165.02 101.02 167.01 101.01 169.00 101.00 C 169.00 99.00 169.01 96.99 169.02 94.98 C 167.01 94.98 165.01 94.97 163.00 94.97 M 125.01 156.99 C 124.99 158.98 124.98 160.98 124.97 162.97 C 127.32 162.98 129.67 163.00 132.02 163.02 C 132.02 161.01 132.01 158.99 132.01 156.98 C 129.67 156.98 127.34 156.99 125.01 156.99 Z" />
<path fill="#ffc4dd" opacity="1.00" d=" M 94.95 26.14 C 98.95 26.04 102.95 26.00 106.96 26.02 C 106.98 28.01 107.00 30.00 107.03 31.99 C 113.04 32.00 119.05 31.95 125.06 31.86 C 125.07 34.20 125.08 36.54 125.09 38.89 C 127.39 38.90 129.70 38.92 132.00 38.94 C 132.01 44.95 132.01 50.97 132.02 56.98 C 133.99 56.99 135.97 56.99 137.95 57.00 C 137.96 61.32 137.97 65.65 137.99 69.97 C 135.99 69.98 133.99 69.98 131.99 69.99 C 131.99 67.65 131.98 65.31 131.97 62.97 C 129.66 62.99 127.35 63.01 125.04 63.03 C 125.02 65.34 125.00 67.65 124.98 69.97 C 127.32 69.97 129.65 69.98 131.99 69.99 C 131.96 74.01 131.97 78.03 132.00 82.05 C 134.01 82.03 136.01 82.02 138.02 82.00 C 138.03 77.99 138.03 73.98 137.99 69.97 C 139.97 69.99 141.96 70.02 143.95 70.04 C 143.97 74.03 143.99 78.02 144.00 82.00 C 144.01 84.00 144.01 86.00 144.02 88.00 C 142.01 88.01 140.01 88.03 138.01 88.05 C 138.01 90.36 138.00 92.68 138.00 94.99 C 133.67 95.02 129.33 95.02 125.00 95.01 C 124.99 90.68 124.98 86.36 124.98 82.03 C 122.99 82.02 121.00 82.00 119.02 81.99 C 119.00 80.00 118.98 78.01 118.97 76.03 C 116.99 76.02 115.01 76.00 113.04 75.99 C 113.01 73.99 112.98 71.99 112.95 69.99 C 110.99 69.97 109.02 69.94 107.06 69.92 C 107.05 67.63 107.04 65.35 107.02 63.06 C 105.02 63.02 103.01 62.98 101.01 62.94 C 100.99 60.98 100.98 59.01 100.97 57.05 C 98.93 57.02 96.89 56.99 94.85 56.96 C 94.93 46.69 94.91 36.41 94.95 26.14 Z" />
<path fill="#ffc4dd" opacity="1.00" d=" M 51.35 45.27 C 53.14 45.29 54.93 45.30 56.71 45.32 C 56.70 47.21 56.69 49.11 56.69 51.01 C 54.86 51.01 53.04 50.99 51.22 50.97 C 51.27 49.07 51.31 47.17 51.35 45.27 Z" />
<path fill="#ffc4dd" opacity="1.00" d=" M 38.01 51.02 C 42.41 50.93 46.81 50.87 51.22 50.97 C 51.09 52.95 50.97 54.93 50.85 56.91 C 48.91 56.96 46.97 57.01 45.03 57.07 C 44.99 61.36 44.97 65.64 44.95 69.93 C 42.64 69.97 40.34 70.01 38.04 70.05 C 37.99 74.05 37.97 78.05 37.97 82.05 C 40.23 81.99 42.50 81.92 44.76 81.86 C 44.89 79.91 45.01 77.96 45.14 76.02 C 47.09 76.04 49.04 76.07 50.99 76.11 C 51.00 78.07 51.00 80.03 51.00 81.99 C 49.00 82.01 47.00 82.02 45.00 82.04 C 45.02 86.51 45.01 90.98 45.01 95.45 C 40.67 95.36 36.33 95.18 32.00 94.91 C 31.99 92.62 31.99 90.32 31.98 88.03 C 29.99 88.02 27.99 88.00 26.00 87.99 C 25.98 79.66 25.98 71.34 26.00 63.01 C 28.00 62.99 29.99 62.97 31.99 62.95 C 31.99 60.98 32.00 59.00 32.00 57.02 C 33.99 57.00 35.99 56.98 37.98 56.95 C 37.99 54.98 38.00 53.00 38.01 51.02 Z" />
<path fill="#ffc4dd" opacity="1.00" d=" M 70.00 57.01 C 76.00 56.98 82.00 56.98 88.00 57.00 C 88.00 59.00 87.99 61.00 87.99 63.00 C 87.98 65.29 87.98 67.59 87.98 69.89 C 89.92 70.00 91.85 70.12 93.79 70.24 C 93.88 72.14 93.98 74.04 94.06 75.95 C 92.05 75.97 90.03 75.99 88.02 76.01 C 88.00 79.98 87.98 83.95 87.98 87.93 C 85.98 87.97 83.99 88.01 82.00 88.06 C 81.98 92.34 81.98 96.63 82.00 100.92 C 85.91 100.94 89.82 100.95 93.73 100.97 C 93.70 102.87 93.67 104.77 93.65 106.68 C 87.76 106.58 81.87 106.64 75.98 106.80 C 75.96 104.85 75.93 102.90 75.91 100.96 C 73.94 100.97 71.97 100.99 70.01 101.01 C 69.93 113.33 70.00 125.65 69.97 137.97 C 71.98 137.98 73.99 137.99 76.00 138.00 C 77.99 138.01 79.98 138.01 81.97 138.01 C 81.99 139.99 82.01 141.97 82.04 143.95 C 80.03 143.97 78.02 144.00 76.01 144.04 C 75.99 146.02 75.97 148.00 75.95 149.99 C 77.96 150.01 79.97 150.03 81.98 150.05 C 81.99 152.36 82.00 154.67 82.02 156.98 C 84.00 156.99 85.99 157.00 87.98 157.02 C 87.98 158.98 87.98 160.94 87.98 162.91 C 90.02 162.98 92.07 163.04 94.12 163.11 C 94.08 171.38 94.06 179.64 94.04 187.90 C 92.05 187.93 90.06 187.96 88.06 187.99 C 88.03 186.01 87.99 184.04 87.96 182.07 C 85.93 182.00 83.91 181.93 81.88 181.86 C 81.80 179.69 81.72 177.51 81.64 175.34 C 79.77 175.31 77.90 175.29 76.03 175.27 C 76.01 173.19 75.98 171.11 75.95 169.03 C 73.98 169.01 72.01 169.00 70.04 168.99 C 70.00 166.84 69.97 164.70 69.94 162.56 C 67.79 162.57 65.64 162.57 63.50 162.58 C 63.13 156.40 62.90 150.22 62.97 144.03 C 60.98 144.02 59.00 144.00 57.01 143.99 C 56.97 125.23 56.98 106.47 57.00 87.70 C 58.87 87.68 60.74 87.66 62.62 87.65 C 62.86 81.77 63.03 75.90 63.02 70.01 C 65.34 70.00 67.67 69.98 69.99 69.97 C 69.99 65.64 69.99 61.32 70.00 57.01 Z" />
<path fill="#ffc4dd" opacity="1.00" d=" M 95.30 100.98 C 97.09 100.98 98.87 100.99 100.65 100.99 C 100.64 102.87 100.62 104.75 100.61 106.63 C 98.88 106.64 97.14 106.65 95.40 106.66 C 95.37 104.76 95.34 102.87 95.30 100.98 Z" />
<path fill="#ffc4dd" opacity="1.00" d=" M 82.04 143.95 C 84.01 143.99 85.97 144.03 87.94 144.07 C 87.97 146.05 88.00 148.02 88.03 150.00 C 86.02 150.01 84.00 150.03 81.98 150.05 C 82.00 148.01 82.02 145.98 82.04 143.95 Z" />
<path fill="#ffc4dd" opacity="1.00" d=" M 88.03 150.00 C 90.03 150.03 92.03 150.06 94.02 150.08 C 94.05 152.37 94.07 154.65 94.09 156.94 C 92.06 156.97 90.02 156.99 87.98 157.02 C 88.00 154.68 88.02 152.34 88.03 150.00 Z" />
</g>
</svg>
